<?xml version="1.0" encoding="utf-8"?>
<!-- Generator: Adobe Illustrator 15.0.0, SVG Export Plug-In  -->
<!DOCTYPE svg PUBLIC "-//W3C//DTD SVG 1.1//EN" "http://www.w3.org/Graphics/SVG/1.1/DTD/svg11.dtd" [
	<!ENTITY ns_flows "http://ns.adobe.com/Flows/1.0/">
]>
<svg version="1.1"
	 xmlns="http://www.w3.org/2000/svg" xmlns:xlink="http://www.w3.org/1999/xlink" xmlns:a="http://ns.adobe.com/AdobeSVGViewerExtensions/3.0/"
	 x="0px" y="0px" width="125px" height="100px" viewBox="-17.423 -11.148 125 100"
	 overflow="visible" enable-background="new -17.423 -11.148 125 100" xml:space="preserve">
<defs>
</defs>
<path fill-rule="evenodd" clip-rule="evenodd" fill="#FFFFFF" d="M75.896,1.292c1.669,0.707,4.097-1.484,6.48-0.96
	c2.641,0.581,3.307,0.76,4.561,2.4c2.465,3.224,7.377,6.219,8.64,9.84c0.233,1.433-0.565,1.834-0.48,3.12
	c-3.089,4.145-7.458-0.253-12.96,0.24c-0.265,1.015-1.376,1.184-1.439,2.4c-0.026-0.191-0.794-0.728-0.721-0.24
	c0.841,1.639-0.657,3.281,1.201,4.8c-1.048-0.218-2.16-2.436-3.12-1.2c1.86-0.304,4.762,4.185,3.12,3.36
	c-0.025,0.744,0.293,1.146,0.479,1.68c-0.477,0.164-0.55,0.731-0.96,0.96c0.695,0.345,0.989,1.091,1.199,1.92
	c-0.448-0.013-0.508,0.185-0.239,0.48c-0.472,0.072-0.477-0.324-0.72-0.48c-0.038,0.283,0.041,0.682-0.24,0.72
	c-0.07-0.213-0.649-1.051-0.721-0.48c0.207,0.754,1.387,0.533,1.44,1.44c-0.702,0.247-0.778,0.745-1.2,0.72
	c0.003,0.477,0.655,0.305,0.48,0.96c-0.893,0.614-0.444-0.041-1.2,0.24c0.163,0.558,0.798,0.643,0.96,1.2
	c-1.187-0.46-1.434,0.262-0.72,0.96c-0.534,0.106-1.302-0.741-1.439-0.24c0.933,1.806-3.007,3.256-1.441,5.52
	c-1.169-0.434-0.165,0.612-1.439,0.72c0.883,0.633-2.167,1.303-2.159,2.641c-2.598-0.078-3.562,2.353-5.761,1.92
	c0.093,1.359-1.255,0.908-1.68,1.2c0.213,0.507,0.73,0.709,0.72,1.439c-0.854-0.373-0.146,0.815-0.72,0.721
	c-0.163-0.266-0.798-1.245-0.961-0.721c-0.198,0.679,0.339,0.622,0.24,1.2c-0.703-0.063-0.891-0.331-1.2,0
	c0.567,1.58-0.241,2.273-0.719,3.36c0.763,1.573-0.111,3.237-0.24,4.8c-0.506,6.141,1.726,8.789,3.36,12.96
	c0.58,0.459,1.016,1.063,1.199,1.92c-3.057,0.017-5.647-0.433-5.76-3.36c-0.679,0.199-0.622-0.338-1.2-0.239
	c-1.483-5.503,0.742-15.231-3.12-18.96c0.293-0.027,0.568-0.072,0.479-0.48c-0.476-0.399-0.305,0.021-0.959,0
	c-0.547-0.976,0.865-1.785-0.48-2.4c-0.348,0.452-0.353,1.248-0.96,1.44c0.024-0.68,1.046-1.587,0-1.92
	c-0.083,6.796-4.363,9.396-3.601,17.04c0.688,1.232,1.357,2.483,1.2,4.56c0.581,0.3,0.776,0.984,0.961,1.681
	c-3.069,0.728-5.948-0.757-5.521-4.32c-2.26-3.033,1.763-7.294,1.68-11.76c-0.038-2.117,0.686-4.953-1.439-6.24
	c-1.11,3.361-5.391,0.173-7.2,2.64c-0.037-0.282,0.041-0.681-0.24-0.72c-0.283,0.116-0.544,0.256-0.72,0.48
	c0.241,0.229,0.034,2.962-0.24,2.64c-0.016-1.744-0.639-2.881-1.92-3.36c0.473,1.222-0.319,1.688-0.72,2.641
	c-0.038-0.283,0.041-0.682-0.24-0.721c0.298,1.338-0.597,1.483-1.2,1.92c0.011-1.399,0.133-1.617-0.96-2.64
	c-0.558,1.042-0.407,2.792-1.2,3.601c0.202-0.918,0.313-1.927,0.24-3.12c-0.733,0.173-0.874-0.246-1.439-0.24
	c0.023,0.744-0.294,1.146-0.48,1.68c-0.328,2.469-0.015-1.39-0.479-1.68c-0.062,0.44-0.521,1.688-0.721,1.2
	c0.526-0.5-0.21-0.776,0.24-1.2c-0.663,0.655-0.226-0.352-0.72-0.48c-0.646,0.647-3.11,0.03-3.84-0.72
	c-0.716-0.059-0.912,1.626-1.681,0.72c0.423-0.058,0.547-0.412,0.48-0.96c-0.943-0.016-1.1-0.82-1.44-1.439
	c-1.206,0.153-1.025,1.694-1.92,2.16c-0.229-0.447,0.719-0.803,0-0.96c-0.141,0.213-0.504,1.368-0.72,0.72
	c0.389,0.172,0.389-1.132,0-0.96c-0.512,0.437-1.308,0.216-1.44,0.479c0.036,1.007-0.124,0.578-0.479,0.24
	c0.126,1.919-1.875,2.608-2.641,2.88c-0.142,0.73-0.601,1.085-1.68,0.72c1.247,6.114,4.696,10.024,6.48,15.601
	c0.73,0.389,1.501,0.739,1.68,1.68c-2.84,1.584-5.43-0.872-6.48-2.64c-0.399,0-0.8,0-1.199,0c-1.308-2.373-1.945-5.415-3.601-7.44
	c-0.346,3.192-0.078,5.825,0,9.12c0.829,0.964,2.072,2.41,1.44,4.08c0.63,0.649,1.632,0.928,1.68,2.16
	c-2.817,0.979-4.392-0.936-6-1.92c0.504-0.938-0.536-0.95-0.479-1.44c-0.308,0.014-0.333,0.308-0.721,0.24
	c-0.594-1.094-1.226-2-1.68-2.64c-0.011-0.731,0.507-0.934,0.72-1.44c-0.239,0-0.479,0-0.72,0c1.036-4.793-0.969-10.864,0-15.36
	c0.202-0.938,1.055-1.62,1.2-2.399c0.059-0.314-0.467-0.427-0.48-0.72c-0.035-0.775,0.441-1.344,0.24-2.16
	c-0.307-0.014-0.332-0.308-0.72-0.24c0.028-1.012,0.866-1.214,1.2-1.92c-0.534-0.187-0.937-0.504-1.681-0.48
	c-0.157-1.362-0.965-2.075-1.92-2.64c0.529-0.956-0.069-1.717,0-2.88c-0.477-0.399-0.305,0.021-0.96,0
	c0.72-0.781-1.411-3.083-0.96-1.92c-2.172-5.594-0.734-12.443-2.16-18.24c0.999-0.361,1.506-1.214,1.44-2.64
	c0.744-0.248,1.576-1.309,2.399-0.72c0.287-1.074,0.868-1.852,1.681-2.4c0.054,0.186,0.007,0.473,0.24,0.48
	c1.797-2.321,3.742-3.491,6-3.84c-0.187-0.054-0.474-0.006-0.48-0.24c0.86-0.729,2.25,0.012,2.88-0.24
	c0.128-0.345-0.936-0.585-0.24-0.72c1.385,0.973,2.938-0.533,4.561,0.24c-0.25-0.938,2.604-0.915,3.84,0
	c-0.312-0.319-0.147-0.724,0.24-0.96c1.965,1.082,4.025,0.675,6.239,0.24c0.164,0.75,0.731,0.403,0.961,0
	c0.364,0.886,1.49,1.012,2.159,0.48c-0.013,0.413,0.186,0.615,0.48,0.72c0-0.24,0-0.48,0-0.72c0.7-0.06,0.828,0.452,1.2,0.72
	c0.277-0.811-0.17-1.024,0.239-1.44c0.53,0.761,0.586-0.351,0.96,0.96c0.054-0.186,0.007-0.473,0.24-0.48
	c-0.013,0.413,0.185,0.615,0.48,0.72c0.024-0.27-0.349-0.374,0-0.48c0.72,1.059,1.799,1.362,2.88,0.72
	c0.062,1.171,0.962,0.262,1.68,0.96c0.333-0.021,0.147-1.726,0.48-0.96c0.31,2.035,1.853,0.875,2.64,0.96
	c-0.146-0.224-0.559-0.885,0.24-0.72c0.796,0.906,2.13,0.458,3.84,0.48c0.024-0.27-0.349-0.374,0-0.48
	c0.062,0.337,0.526,0.273,0.721,0.48c-0.735-1.009,1.034,0.229,0.239-0.72c0.754-0.113,0.634,0.646,1.2,0.72
	c0.024-0.27-0.35-0.374,0-0.48c1.818,0.245,2.526,1.654,4.32,0.24c0.098,0.302,0.31,0.491,0.72,0.48
	c-0.393-0.906,0.916,0.223,0.72-0.96c0.062,0.374,0.526,0.167,0.72,0c0.038,0.283-0.041,0.682,0.24,0.72
	c0.752-0.449,3.115-0.293,2.399-1.44c0.756-0.12,0.938,0.523,1.441,0c0.094,0.413-0.357,0.615,0,0.72
	c1.02-0.77,2.71-0.454,2.64-1.92c2.546,1.263,3.42-0.936,4.8-2.16c-0.021-0.62-1.028-0.253-0.72-1.2
	c1.349-0.087,3.663-0.64,3.359-2.16c0.418-0.018,0.746,0.054,0.96,0.24c0.389-0.847,0.636-1.878,0.721-1.92
	c0.06,0.997,2.665,0.895,2.399,0c0.817-0.178,0.396,0.884,0.96,0.96C76.252,1.941,75.397,1.363,75.896,1.292z"/>
<path fill-rule="evenodd" clip-rule="evenodd" fill="none" stroke="#000000" stroke-width="0.5" stroke-miterlimit="10" d="
	M75.417,2.012c-0.564-0.076-0.143-1.138-0.96-0.96c0.266,0.895-2.34,0.997-2.399,0c-0.085,0.042-0.332,1.073-0.721,1.92
	c-0.214-0.187-0.542-0.258-0.96-0.24c0.304,1.521-2.011,2.073-3.359,2.16c-0.309,0.947,0.698,0.581,0.72,1.2
	c-1.38,1.224-2.254,3.423-4.8,2.16c0.07,1.466-1.62,1.15-2.64,1.92c-0.357-0.104,0.094-0.307,0-0.72
	c-0.503,0.523-0.686-0.12-1.441,0c0.716,1.146-1.647,0.991-2.399,1.44c-0.281-0.039-0.202-0.438-0.24-0.72
	c-0.193,0.167-0.657,0.374-0.72,0c0.196,1.183-1.112,0.054-0.72,0.96c-0.41,0.011-0.622-0.178-0.72-0.48
	c-1.794,1.414-2.502,0.005-4.32-0.24c-0.35,0.106,0.024,0.21,0,0.48c-0.566-0.074-0.446-0.833-1.2-0.72
	c0.795,0.95-0.975-0.289-0.239,0.72c-0.194-0.207-0.658-0.143-0.721-0.48c-0.349,0.106,0.024,0.21,0,0.48
	c-1.71-0.022-3.044,0.426-3.84-0.48c-0.799-0.166-0.387,0.496-0.24,0.72c-0.787-0.085-2.33,1.075-2.64-0.96
	c-0.333-0.766-0.147,0.939-0.48,0.96c-0.718-0.698-1.617,0.211-1.68-0.96c-1.081,0.643-2.16,0.339-2.88-0.72
	c-0.349,0.106,0.024,0.21,0,0.48c-0.296-0.105-0.493-0.307-0.48-0.72c-0.233,0.007-0.187,0.294-0.24,0.48
	c-0.374-1.311-0.43-0.199-0.96-0.96c-0.409,0.416,0.038,0.629-0.239,1.44c-0.372-0.268-0.5-0.78-1.2-0.72c0,0.24,0,0.48,0,0.72
	c-0.295-0.104-0.493-0.307-0.48-0.72c-0.669,0.532-1.795,0.406-2.159-0.48c-0.229,0.403-0.797,0.75-0.961,0
	c-2.214,0.435-4.274,0.842-6.239-0.24c-0.388,0.236-0.553,0.641-0.24,0.96c-1.236-0.915-4.09-0.938-3.84,0
	c-1.623-0.772-3.176,0.733-4.561-0.24c-0.695,0.134,0.368,0.375,0.24,0.72c-0.63,0.252-2.02-0.489-2.88,0.24
	c0.007,0.233,0.294,0.186,0.48,0.24c-2.258,0.349-4.203,1.52-6,3.84c-0.233-0.007-0.187-0.294-0.24-0.48
	c-0.812,0.548-1.394,1.326-1.681,2.4c-0.823-0.589-1.655,0.472-2.399,0.72c0.065,1.426-0.441,2.279-1.44,2.64
	c1.426,5.797-0.012,12.646,2.16,18.24c-0.451-1.163,1.68,1.139,0.96,1.92c0.655,0.021,0.483-0.399,0.96,0
	c-0.069,1.163,0.529,1.924,0,2.88c0.955,0.564,1.763,1.277,1.92,2.64c0.744-0.023,1.146,0.294,1.681,0.48
	c-0.334,0.706-1.172,0.908-1.2,1.92c0.388-0.067,0.413,0.227,0.72,0.24c0.201,0.816-0.275,1.385-0.24,2.16
	c0.014,0.293,0.539,0.405,0.48,0.72c-0.146,0.779-0.998,1.461-1.2,2.399c-0.969,4.496,1.036,10.567,0,15.36c0.24,0,0.48,0,0.72,0
	c-0.213,0.507-0.73,0.709-0.72,1.44c0.454,0.64,1.086,1.546,1.68,2.64c0.388,0.067,0.413-0.227,0.721-0.24
	c-0.057,0.49,0.983,0.503,0.479,1.44c1.608,0.984,3.183,2.899,6,1.92c-0.048-1.232-1.05-1.511-1.68-2.16
	c0.632-1.67-0.611-3.116-1.44-4.08c-0.078-3.295-0.346-5.928,0-9.12c1.655,2.025,2.293,5.067,3.601,7.44c0.399,0,0.8,0,1.199,0
	c1.051,1.768,3.641,4.224,6.48,2.64c-0.179-0.94-0.949-1.291-1.68-1.68c-1.784-5.576-5.233-9.486-6.48-15.601
	c1.079,0.365,1.538,0.011,1.68-0.72c0.766-0.271,2.767-0.961,2.641-2.88c0.355,0.338,0.516,0.767,0.479-0.24
	c0.133-0.264,0.929-0.043,1.44-0.479c0.389-0.172,0.389,1.132,0,0.96c0.216,0.648,0.579-0.507,0.72-0.72
	c0.719,0.157-0.229,0.513,0,0.96c0.895-0.466,0.714-2.007,1.92-2.16c0.341,0.619,0.497,1.424,1.44,1.439
	c0.066,0.548-0.058,0.902-0.48,0.96c0.769,0.906,0.965-0.778,1.681-0.72c0.729,0.75,3.193,1.367,3.84,0.72
	c0.494,0.129,0.057,1.136,0.72,0.48c-0.45,0.424,0.286,0.7-0.24,1.2c0.199,0.488,0.658-0.76,0.721-1.2
	c0.465,0.29,0.151,4.148,0.479,1.68c0.187-0.533,0.504-0.936,0.48-1.68c0.565-0.006,0.706,0.413,1.439,0.24
	c0.073,1.193-0.038,2.202-0.24,3.12c0.793-0.809,0.643-2.559,1.2-3.601c1.093,1.022,0.971,1.24,0.96,2.64
	c0.604-0.437,1.498-0.582,1.2-1.92c0.281,0.039,0.202,0.438,0.24,0.721c0.4-0.953,1.192-1.419,0.72-2.641
	c1.281,0.479,1.904,1.616,1.92,3.36c0.274,0.322,0.481-2.411,0.24-2.64c0.176-0.225,0.437-0.364,0.72-0.48
	c0.281,0.039,0.203,0.438,0.24,0.72c1.81-2.467,6.09,0.722,7.2-2.64c2.125,1.287,1.401,4.123,1.439,6.24
	c0.083,4.466-3.939,8.727-1.68,11.76c-0.428,3.563,2.451,5.048,5.521,4.32c-0.185-0.696-0.38-1.381-0.961-1.681
	c0.157-2.076-0.512-3.327-1.2-4.56c-0.763-7.644,3.518-10.244,3.601-17.04c1.046,0.333,0.024,1.24,0,1.92
	c0.607-0.192,0.612-0.988,0.96-1.44c1.346,0.615-0.066,1.425,0.48,2.4c0.654,0.021,0.483-0.399,0.959,0
	c0.089,0.408-0.187,0.453-0.479,0.48c3.862,3.729,1.637,13.457,3.12,18.96c0.578-0.099,0.521,0.438,1.2,0.239
	c0.112,2.928,2.703,3.377,5.76,3.36c-0.184-0.856-0.619-1.461-1.199-1.92c-1.635-4.171-3.866-6.819-3.36-12.96
	c0.129-1.562,1.003-3.227,0.24-4.8c0.478-1.087,1.286-1.78,0.719-3.36c0.31-0.331,0.497-0.063,1.2,0
	c0.099-0.578-0.438-0.521-0.24-1.2c0.163-0.524,0.798,0.455,0.961,0.721c0.574,0.095-0.134-1.094,0.72-0.721
	c0.011-0.73-0.507-0.933-0.72-1.439c0.425-0.292,1.772,0.159,1.68-1.2c2.199,0.433,3.163-1.998,5.761-1.92
	c-0.008-1.338,3.042-2.008,2.159-2.641c1.274-0.107,0.271-1.153,1.439-0.72c-1.565-2.264,2.374-3.714,1.441-5.52
	c0.138-0.501,0.905,0.346,1.439,0.24c-0.714-0.698-0.467-1.42,0.72-0.96c-0.162-0.558-0.797-0.643-0.96-1.2
	c0.756-0.281,0.308,0.375,1.2-0.24c0.175-0.655-0.478-0.483-0.48-0.96c0.422,0.025,0.498-0.474,1.2-0.72
	c-0.054-0.907-1.233-0.686-1.44-1.44c0.071-0.571,0.65,0.267,0.721,0.48c0.281-0.039,0.202-0.438,0.24-0.72
	c0.243,0.156,0.248,0.552,0.72,0.48c-0.269-0.295-0.209-0.493,0.239-0.48c-0.21-0.829-0.504-1.575-1.199-1.92
	c0.41-0.229,0.483-0.796,0.96-0.96c-0.187-0.533-0.505-0.936-0.479-1.68c1.642,0.824-1.26-3.665-3.12-3.36
	c0.96-1.236,2.072,0.982,3.12,1.2c-1.858-1.519-0.36-3.161-1.201-4.8c-0.073-0.488,0.694,0.049,0.721,0.24
	c0.063-1.216,1.175-1.385,1.439-2.4c5.502-0.494,9.871,3.904,12.96-0.24c-0.085-1.285,0.714-1.687,0.48-3.12
	c-1.263-3.621-6.175-6.617-8.64-9.84c-1.254-1.64-1.92-1.819-4.561-2.4c-2.384-0.524-4.812,1.667-6.48,0.96
	C75.397,1.363,76.252,1.941,75.417,2.012z"/>
</svg>
